<svg xmlns="http://www.w3.org/2000/svg" xmlns:xlink="http://www.w3.org/1999/xlink" viewBox="0 0 173.96 170.39"><defs><style>.cls-1{fill:url(#linear-gradient);}.cls-2{fill:url(#linear-gradient-2);}.cls-3{fill:url(#linear-gradient-3);}</style><linearGradient id="linear-gradient" x1="211.1" y1="-214.29" x2="422.55" y2="-214.29" gradientTransform="translate(-152.85 -247.09) rotate(90)" gradientUnits="userSpaceOnUse"><stop offset="0" stop-color="#f72585"/><stop offset="0.08" stop-color="#ed2389"/><stop offset="0.23" stop-color="#d31d93"/><stop offset="0.36" stop-color="#b5179e"/><stop offset="0.67" stop-color="#7209b7"/><stop offset="0.91" stop-color="#3a0ca3"/></linearGradient><linearGradient id="linear-gradient-2" x1="160.04" y1="-214.29" x2="371.49" y2="-214.29" gradientTransform="translate(369.98 -152.84) rotate(180)" xlink:href="#linear-gradient"/><linearGradient id="linear-gradient-3" x1="185.39" y1="-261.78" x2="396.84" y2="-261.78" gradientTransform="translate(472.26 123.82) rotate(-135)" xlink:href="#linear-gradient"/></defs><g id="Layer_2" data-name="Layer 2"><g id="Layer_1-2" data-name="Layer 1"><path class="cls-1" d="M122.89,61.45A61.45,61.45,0,1,0,61.44,122.9,61.45,61.45,0,0,0,122.89,61.45ZM17,61.45a44.43,44.43,0,1,1,44.42,44.43A44.43,44.43,0,0,1,17,61.45Z"/><path class="cls-2" d="M112.51,122.9A61.45,61.45,0,1,0,51.06,61.45,61.45,61.45,0,0,0,112.51,122.9Zm0-105.87A44.43,44.43,0,1,1,68.08,61.45,44.42,44.42,0,0,1,112.51,17Z"/><path class="cls-3" d="M43.71,152.39a61.45,61.45,0,1,0,0-86.91A61.45,61.45,0,0,0,43.71,152.39Zm74.86-74.86a44.42,44.42,0,1,1-62.82,0A44.41,44.41,0,0,1,118.57,77.53Z"/></g></g></svg>