<svg xmlns="http://www.w3.org/2000/svg" viewBox="0 0 323 332.96"><defs><style>.cls-1{fill:#a8b1bf;}</style></defs><g id="Layer_2" data-name="Layer 2"><g id="Layer_1-2" data-name="Layer 1"><path class="cls-1" d="M275.54,28H245.37V20.81a20.81,20.81,0,1,0-41.61,0V28H119.24V20.81a20.81,20.81,0,1,0-41.61,0V28H47.46A47.6,47.6,0,0,0,0,75.42V285.5A47.6,47.6,0,0,0,47.46,333H275.54A47.6,47.6,0,0,0,323,285.5V75.42A47.6,47.6,0,0,0,275.54,28ZM290,285.25a17.31,17.31,0,0,1-17.31,17.31H50.31A17.31,17.31,0,0,1,33,285.25V107.9H290Z"/><path class="cls-1" d="M186.45,233.93A19.15,19.15,0,0,1,167.35,253H78.21a19.1,19.1,0,0,1,0-38.19h89.14A19.16,19.16,0,0,1,186.45,233.93Z"/><path class="cls-1" d="M258.19,176.53a19.63,19.63,0,0,1-19.56,19.56h-160a19.56,19.56,0,0,1,0-39.12h160A19.61,19.61,0,0,1,258.19,176.53Z"/></g></g></svg>